<?xml version="1.0" encoding="utf-8"?>
<!-- Generator: Adobe Illustrator 27.8.1, SVG Export Plug-In . SVG Version: 6.00 Build 0)  -->
<svg version="1.1" id="Capa_1" xmlns="http://www.w3.org/2000/svg" xmlns:xlink="http://www.w3.org/1999/xlink" x="0px" y="0px"
	 viewBox="0 0 15 15" style="enable-background:new 0 0 15 15;" xml:space="preserve">
<style type="text/css">
	.st0{fill:#FFFFFF;}
</style>
<g>
	<g>
		<path class="st0" d="M10.4,0h0.1c0.1,1.1-0.3,1.8-0.8,2.4S8.5,3.5,7.5,3.5c-0.1-1,0.3-1.8,0.8-2.3C8.8,0.6,9.6,0.1,10.4,0z"/>
		<path class="st0" d="M13.6,11L13.6,11c-0.3,0.9-0.7,1.7-1.2,2.4s-1.1,1.5-2.1,1.5c-0.9,0-1.5-0.6-2.4-0.6c-1,0-1.5,0.5-2.4,0.6
			c-0.1,0-0.2,0-0.3,0c-0.7-0.1-1.2-0.6-1.6-1.1c-1.1-1.4-2-3.2-2.2-5.5c0-0.2,0-0.4,0-0.7C1.5,6,2.3,4.6,3.3,4
			c0.6-0.3,1.3-0.6,2.2-0.5c0.3,0.2,0.7,0.4,1,0.5s0.7,0.3,1.1,0.3c0.2,0,0.5-0.1,0.7-0.2C9,3.8,9.8,3.5,10.7,3.7
			c1.1,0.2,2,0.7,2.5,1.5c-1,0.6-1.7,1.5-1.6,3.1C11.7,9.7,12.6,10.5,13.6,11z"/>
	</g>
</g>
</svg>
