<?xml version="1.0" encoding="UTF-8"?>
<svg xmlns="http://www.w3.org/2000/svg" version="1.1" viewBox="0 0 100 100">
  <!-- Generator: Adobe Illustrator 28.7.1, SVG Export Plug-In . SVG Version: 1.2.0 Build 142)  -->
  <g>
    <g id="Ebene_1" shape-rendering="auto">
      <g>
        <rect x="38.8" y="10" width="3.2" height="3.2"/>
        <rect x="54.8" y="10" width="3.2" height="3.2"/>
        <rect x="61.2" y="10" width="3.2" height="3.2"/>
        <rect x="35.6" y="13.2" width="3.2" height="3.2"/>
        <rect x="38.8" y="13.2" width="3.2" height="3.2"/>
        <rect x="45.2" y="13.2" width="3.2" height="3.2"/>
        <rect x="48.4" y="13.2" width="3.2" height="3.2"/>
        <rect x="51.6" y="13.2" width="3.2" height="3.2"/>
        <rect x="54.8" y="13.2" width="3.2" height="3.2"/>
        <rect x="38.8" y="16.4" width="3.2" height="3.2"/>
        <rect x="42" y="16.4" width="3.2" height="3.2"/>
        <rect x="45.2" y="16.4" width="3.2" height="3.2"/>
        <rect x="35.6" y="19.6" width="3.2" height="3.2"/>
        <rect x="38.8" y="19.6" width="3.2" height="3.2"/>
        <rect x="45.2" y="19.6" width="3.2" height="3.2"/>
        <rect x="51.6" y="19.6" width="3.2" height="3.2"/>
        <rect x="58" y="19.6" width="3.2" height="3.2"/>
        <rect x="61.2" y="19.6" width="3.2" height="3.2"/>
        <rect x="42" y="22.8" width="3.2" height="3.2"/>
        <rect x="48.4" y="22.8" width="3.2" height="3.2"/>
        <rect x="58" y="22.8" width="3.2" height="3.2"/>
        <rect x="61.2" y="22.8" width="3.2" height="3.2"/>
        <rect x="35.6" y="26" width="3.2" height="3.2"/>
        <rect x="42" y="26" width="3.2" height="3.2"/>
        <rect x="51.6" y="26" width="3.2" height="3.2"/>
        <rect x="54.8" y="26" width="3.2" height="3.2"/>
        <rect x="58" y="26" width="3.2" height="3.2"/>
        <rect x="35.6" y="29.2" width="3.2" height="3.2"/>
        <rect x="42" y="29.2" width="3.2" height="3.2"/>
        <rect x="48.4" y="29.2" width="3.2" height="3.2"/>
        <rect x="54.8" y="29.2" width="3.2" height="3.2"/>
        <rect x="61.2" y="29.2" width="3.2" height="3.2"/>
        <rect x="48.4" y="32.4" width="3.2" height="3.2"/>
        <rect x="61.2" y="32.4" width="3.2" height="3.2"/>
        <rect x="10" y="35.6" width="3.2" height="3.2"/>
        <rect x="13.2" y="35.6" width="3.2" height="3.2"/>
        <rect x="16.4" y="35.6" width="3.2" height="3.2"/>
        <rect x="19.6" y="35.6" width="3.2" height="3.2"/>
        <rect x="22.8" y="35.6" width="3.2" height="3.2"/>
        <rect x="29.2" y="35.6" width="3.2" height="3.2"/>
        <rect x="32.4" y="35.6" width="3.2" height="3.2"/>
        <rect x="35.6" y="35.6" width="3.2" height="3.2"/>
        <rect x="38.8" y="35.6" width="3.2" height="3.2"/>
        <rect x="42" y="35.6" width="3.2" height="3.2"/>
        <rect x="48.4" y="35.6" width="3.2" height="3.2"/>
        <rect x="51.6" y="35.6" width="3.2" height="3.2"/>
        <rect x="54.8" y="35.6" width="3.2" height="3.2"/>
        <rect x="58" y="35.6" width="3.2" height="3.2"/>
        <rect x="64.4" y="35.6" width="3.2" height="3.2"/>
        <rect x="70.8" y="35.6" width="3.2" height="3.2"/>
        <rect x="77.2" y="35.6" width="3.2" height="3.2"/>
        <rect x="83.6" y="35.6" width="3.2" height="3.2"/>
        <rect x="19.6" y="38.8" width="3.2" height="3.2"/>
        <rect x="38.8" y="38.8" width="3.2" height="3.2"/>
        <rect x="58" y="38.8" width="3.2" height="3.2"/>
        <rect x="61.2" y="38.8" width="3.2" height="3.2"/>
        <rect x="64.4" y="38.8" width="3.2" height="3.2"/>
        <rect x="70.8" y="38.8" width="3.2" height="3.2"/>
        <rect x="74" y="38.8" width="3.2" height="3.2"/>
        <rect x="86.8" y="38.8" width="3.2" height="3.2"/>
        <rect x="29.2" y="42" width="3.2" height="3.2"/>
        <rect x="38.8" y="42" width="3.2" height="3.2"/>
        <rect x="45.2" y="42" width="3.2" height="3.2"/>
        <rect x="48.4" y="42" width="3.2" height="3.2"/>
        <rect x="51.6" y="42" width="3.2" height="3.2"/>
        <rect x="54.8" y="42" width="3.2" height="3.2"/>
        <rect x="58" y="42" width="3.2" height="3.2"/>
        <rect x="64.4" y="42" width="3.2" height="3.2"/>
        <rect x="67.6" y="42" width="3.2" height="3.2"/>
        <rect x="74" y="42" width="3.2" height="3.2"/>
        <rect x="80.4" y="42" width="3.2" height="3.2"/>
        <rect x="10" y="45.2" width="3.2" height="3.2"/>
        <rect x="16.4" y="45.2" width="3.2" height="3.2"/>
        <rect x="38.8" y="45.2" width="3.2" height="3.2"/>
        <rect x="42" y="45.2" width="3.2" height="3.2"/>
        <rect x="45.2" y="45.2" width="3.2" height="3.2"/>
        <rect x="61.2" y="45.2" width="3.2" height="3.2"/>
        <rect x="64.4" y="45.2" width="3.2" height="3.2"/>
        <rect x="10" y="48.4" width="3.2" height="3.2"/>
        <rect x="16.4" y="48.4" width="3.2" height="3.2"/>
        <rect x="19.6" y="48.4" width="3.2" height="3.2"/>
        <rect x="26" y="48.4" width="3.2" height="3.2"/>
        <rect x="29.2" y="48.4" width="3.2" height="3.2"/>
        <rect x="38.8" y="48.4" width="3.2" height="3.2"/>
        <rect x="45.2" y="48.4" width="3.2" height="3.2"/>
        <rect x="51.6" y="48.4" width="3.2" height="3.2"/>
        <rect x="58" y="48.4" width="3.2" height="3.2"/>
        <rect x="67.6" y="48.4" width="3.2" height="3.2"/>
        <rect x="70.8" y="48.4" width="3.2" height="3.2"/>
        <rect x="74" y="48.4" width="3.2" height="3.2"/>
        <rect x="77.2" y="48.4" width="3.2" height="3.2"/>
        <rect x="83.6" y="48.4" width="3.2" height="3.2"/>
        <rect x="86.8" y="48.4" width="3.2" height="3.2"/>
        <rect x="10" y="51.6" width="3.2" height="3.2"/>
        <rect x="13.2" y="51.6" width="3.2" height="3.2"/>
        <rect x="16.4" y="51.6" width="3.2" height="3.2"/>
        <rect x="32.4" y="51.6" width="3.2" height="3.2"/>
        <rect x="35.6" y="51.6" width="3.2" height="3.2"/>
        <rect x="42" y="51.6" width="3.2" height="3.2"/>
        <rect x="48.4" y="51.6" width="3.2" height="3.2"/>
        <rect x="54.8" y="51.6" width="3.2" height="3.2"/>
        <rect x="61.2" y="51.6" width="3.2" height="3.2"/>
        <rect x="64.4" y="51.6" width="3.2" height="3.2"/>
        <rect x="67.6" y="51.6" width="3.2" height="3.2"/>
        <rect x="70.8" y="51.6" width="3.2" height="3.2"/>
        <rect x="74" y="51.6" width="3.2" height="3.2"/>
        <rect x="10" y="54.8" width="3.2" height="3.2"/>
        <rect x="16.4" y="54.8" width="3.2" height="3.2"/>
        <rect x="19.6" y="54.8" width="3.2" height="3.2"/>
        <rect x="22.8" y="54.8" width="3.2" height="3.2"/>
        <rect x="26" y="54.8" width="3.2" height="3.2"/>
        <rect x="29.2" y="54.8" width="3.2" height="3.2"/>
        <rect x="32.4" y="54.8" width="3.2" height="3.2"/>
        <rect x="42" y="54.8" width="3.2" height="3.2"/>
        <rect x="54.8" y="54.8" width="3.2" height="3.2"/>
        <rect x="64.4" y="54.8" width="3.2" height="3.2"/>
        <rect x="67.6" y="54.8" width="3.2" height="3.2"/>
        <rect x="74" y="54.8" width="3.2" height="3.2"/>
        <rect x="80.4" y="54.8" width="3.2" height="3.2"/>
        <rect x="83.6" y="54.8" width="3.2" height="3.2"/>
        <rect x="86.8" y="54.8" width="3.2" height="3.2"/>
        <rect x="10" y="58" width="3.2" height="3.2"/>
        <rect x="19.6" y="58" width="3.2" height="3.2"/>
        <rect x="32.4" y="58" width="3.2" height="3.2"/>
        <rect x="38.8" y="58" width="3.2" height="3.2"/>
        <rect x="48.4" y="58" width="3.2" height="3.2"/>
        <rect x="54.8" y="58" width="3.2" height="3.2"/>
        <rect x="64.4" y="58" width="3.2" height="3.2"/>
        <rect x="83.6" y="58" width="3.2" height="3.2"/>
        <rect x="86.8" y="58" width="3.2" height="3.2"/>
        <rect x="10" y="61.2" width="3.2" height="3.2"/>
        <rect x="16.4" y="61.2" width="3.2" height="3.2"/>
        <rect x="19.6" y="61.2" width="3.2" height="3.2"/>
        <rect x="22.8" y="61.2" width="3.2" height="3.2"/>
        <rect x="26" y="61.2" width="3.2" height="3.2"/>
        <rect x="29.2" y="61.2" width="3.2" height="3.2"/>
        <rect x="32.4" y="61.2" width="3.2" height="3.2"/>
        <rect x="38.8" y="61.2" width="3.2" height="3.2"/>
        <rect x="48.4" y="61.2" width="3.2" height="3.2"/>
        <rect x="51.6" y="61.2" width="3.2" height="3.2"/>
        <rect x="54.8" y="61.2" width="3.2" height="3.2"/>
        <rect x="58" y="61.2" width="3.2" height="3.2"/>
        <rect x="61.2" y="61.2" width="3.2" height="3.2"/>
        <rect x="64.4" y="61.2" width="3.2" height="3.2"/>
        <rect x="67.6" y="61.2" width="3.2" height="3.2"/>
        <rect x="70.8" y="61.2" width="3.2" height="3.2"/>
        <rect x="74" y="61.2" width="3.2" height="3.2"/>
        <rect x="77.2" y="61.2" width="3.2" height="3.2"/>
        <rect x="86.8" y="61.2" width="3.2" height="3.2"/>
        <rect x="35.6" y="64.4" width="3.2" height="3.2"/>
        <rect x="38.8" y="64.4" width="3.2" height="3.2"/>
        <rect x="42" y="64.4" width="3.2" height="3.2"/>
        <rect x="61.2" y="64.4" width="3.2" height="3.2"/>
        <rect x="74" y="64.4" width="3.2" height="3.2"/>
        <rect x="86.8" y="64.4" width="3.2" height="3.2"/>
        <rect x="35.6" y="67.6" width="3.2" height="3.2"/>
        <rect x="38.8" y="67.6" width="3.2" height="3.2"/>
        <rect x="45.2" y="67.6" width="3.2" height="3.2"/>
        <rect x="48.4" y="67.6" width="3.2" height="3.2"/>
        <rect x="51.6" y="67.6" width="3.2" height="3.2"/>
        <rect x="54.8" y="67.6" width="3.2" height="3.2"/>
        <rect x="61.2" y="67.6" width="3.2" height="3.2"/>
        <rect x="67.6" y="67.6" width="3.2" height="3.2"/>
        <rect x="74" y="67.6" width="3.2" height="3.2"/>
        <rect x="80.4" y="67.6" width="3.2" height="3.2"/>
        <rect x="83.6" y="67.6" width="3.2" height="3.2"/>
        <rect x="86.8" y="67.6" width="3.2" height="3.2"/>
        <rect x="38.8" y="70.8" width="3.2" height="3.2"/>
        <rect x="45.2" y="70.8" width="3.2" height="3.2"/>
        <rect x="51.6" y="70.8" width="3.2" height="3.2"/>
        <rect x="61.2" y="70.8" width="3.2" height="3.2"/>
        <rect x="74" y="70.8" width="3.2" height="3.2"/>
        <rect x="77.2" y="70.8" width="3.2" height="3.2"/>
        <rect x="35.6" y="74" width="3.2" height="3.2"/>
        <rect x="42" y="74" width="3.2" height="3.2"/>
        <rect x="45.2" y="74" width="3.2" height="3.2"/>
        <rect x="48.4" y="74" width="3.2" height="3.2"/>
        <rect x="51.6" y="74" width="3.2" height="3.2"/>
        <rect x="54.8" y="74" width="3.2" height="3.2"/>
        <rect x="61.2" y="74" width="3.2" height="3.2"/>
        <rect x="64.4" y="74" width="3.2" height="3.2"/>
        <rect x="67.6" y="74" width="3.2" height="3.2"/>
        <rect x="70.8" y="74" width="3.2" height="3.2"/>
        <rect x="74" y="74" width="3.2" height="3.2"/>
        <rect x="77.2" y="74" width="3.2" height="3.2"/>
        <rect x="35.6" y="77.2" width="3.2" height="3.2"/>
        <rect x="38.8" y="77.2" width="3.2" height="3.2"/>
        <rect x="48.4" y="77.2" width="3.2" height="3.2"/>
        <rect x="58" y="77.2" width="3.2" height="3.2"/>
        <rect x="61.2" y="77.2" width="3.2" height="3.2"/>
        <rect x="67.6" y="77.2" width="3.2" height="3.2"/>
        <rect x="74" y="77.2" width="3.2" height="3.2"/>
        <rect x="83.6" y="77.2" width="3.2" height="3.2"/>
        <rect x="86.8" y="77.2" width="3.2" height="3.2"/>
        <rect x="35.6" y="80.4" width="3.2" height="3.2"/>
        <rect x="38.8" y="80.4" width="3.2" height="3.2"/>
        <rect x="42" y="80.4" width="3.2" height="3.2"/>
        <rect x="48.4" y="80.4" width="3.2" height="3.2"/>
        <rect x="51.6" y="80.4" width="3.2" height="3.2"/>
        <rect x="54.8" y="80.4" width="3.2" height="3.2"/>
        <rect x="74" y="80.4" width="3.2" height="3.2"/>
        <rect x="80.4" y="80.4" width="3.2" height="3.2"/>
        <rect x="86.8" y="80.4" width="3.2" height="3.2"/>
        <rect x="35.6" y="83.6" width="3.2" height="3.2"/>
        <rect x="38.8" y="83.6" width="3.2" height="3.2"/>
        <rect x="48.4" y="83.6" width="3.2" height="3.2"/>
        <rect x="54.8" y="83.6" width="3.2" height="3.2"/>
        <rect x="61.2" y="83.6" width="3.2" height="3.2"/>
        <rect x="64.4" y="83.6" width="3.2" height="3.2"/>
        <rect x="67.6" y="83.6" width="3.2" height="3.2"/>
        <rect x="70.8" y="83.6" width="3.2" height="3.2"/>
        <rect x="74" y="83.6" width="3.2" height="3.2"/>
        <rect x="77.2" y="83.6" width="3.2" height="3.2"/>
        <rect x="83.6" y="83.6" width="3.2" height="3.2"/>
        <rect x="35.6" y="86.8" width="3.2" height="3.2"/>
        <rect x="42" y="86.8" width="3.2" height="3.2"/>
        <rect x="48.4" y="86.8" width="3.2" height="3.2"/>
        <rect x="58" y="86.8" width="3.2" height="3.2"/>
        <rect x="80.4" y="86.8" width="3.2" height="3.2"/>
        <rect x="83.6" y="86.8" width="3.2" height="3.2"/>
        <rect x="86.8" y="86.8" width="3.2" height="3.2"/>
        <path d="M10.7,10c-.4,0-.7.3-.7.7v21c0,.4.3.7.7.7h21c.4,0,.7-.3.7-.7V10.7c0-.4-.3-.7-.7-.7,0,0-21,0-21,0ZM29.2,16.4v12.4c0,.2-.2.4-.4.4h-15.2c-.2,0-.4-.2-.4-.4v-15.2c0-.2.2-.4.4-.4h15.2c.2,0,.4.2.4.4v2.8Z"/>
        <path d="M26,22.8v-5.7c0-.4-.3-.7-.7-.7h-8.2c-.4,0-.7.3-.7.7v8.2c0,.4.3.7.7.7h8.2c.4,0,.7-.3.7-.7v-2.5Z"/>
        <path d="M68.3,10c-.4,0-.7.3-.7.7v21c0,.4.3.7.7.7h21c.4,0,.7-.3.7-.7V10.7c0-.4-.3-.7-.7-.7,0,0-21,0-21,0ZM86.8,16.4v12.4c0,.2-.2.4-.4.4h-15.2c-.2,0-.4-.2-.4-.4v-15.2c0-.2.2-.4.4-.4h15.2c.2,0,.4.2.4.4v2.8Z"/>
        <path d="M83.6,22.8v-5.7c0-.4-.3-.7-.7-.7h-8.2c-.4,0-.7.3-.7.7v8.2c0,.4.3.7.7.7h8.2c.4,0,.7-.3.7-.7v-2.5Z"/>
        <path d="M10.7,67.6c-.4,0-.7.3-.7.7v21c0,.4.3.7.7.7h21c.4,0,.7-.3.7-.7v-21c0-.4-.3-.7-.7-.7,0,0-21,0-21,0ZM29.2,74v12.4c0,.2-.2.4-.4.4h-15.2c-.2,0-.4-.2-.4-.4v-15.2c0-.2.2-.4.4-.4h15.2c.2,0,.4.2.4.4v2.8Z"/>
        <path d="M26,80.4v-5.7c0-.4-.3-.7-.7-.7h-8.2c-.4,0-.7.3-.7.7v8.2c0,.4.3.7.7.7h8.2c.4,0,.7-.3.7-.7v-2.5Z"/>
      </g>
    </g>
  </g>
</svg>