<?xml version="1.0" encoding="UTF-8"?>
<svg xmlns="http://www.w3.org/2000/svg" version="1.1" viewBox="0 0 52.1 20">
  <defs>
    <style>
      .cls-1, .cls-2 {
        fill: #1c1c1c;
      }

      .cls-2 {
        isolation: isolate;
        opacity: .9;
      }
    </style>
  </defs>
  <!-- Generator: Adobe Illustrator 28.7.1, SVG Export Plug-In . SVG Version: 1.2.0 Build 142)  -->
  <g>
    <g id="katman_3">
      <rect class="cls-2" y="18.1" width="29.2" height="1.9"/>
      <path class="cls-1" d="M11.1,16.5h-2.6v-6.7c0-.3,0-.7-.2-1-.1-.4-.3-.7-.6-.9-.3-.3-.6-.5-.9-.7-.4-.2-.8-.3-1.2-.3s-.9,0-1.3.3c-.4.2-.7.4-.9.7-.3.3-.5.6-.6,1-.1.3-.2.7-.2,1v6.7H0V4.9h2.6v1.5s.1-.1.3-.3.4-.4.8-.7c.3-.2.7-.4,1.2-.7.5-.2,1.1-.3,1.7-.3s1.3.1,1.9.4c.6.3,1,.6,1.4,1,.4.4.7.9.9,1.4s.3,1.1.3,1.6v7.4h0Z"/>
      <path class="cls-1" d="M12.6,8.2c.3-.8.8-1.4,1.3-2,.6-.6,1.2-1,2-1.3.8-.3,1.6-.5,2.4-.5s1.7.2,2.4.5c.8.3,1.4.8,2,1.3.6.6,1,1.2,1.4,2s.5,1.6.5,2.4-.2,1.7-.5,2.4c-.3.8-.8,1.4-1.4,2-.6.6-1.2,1-2,1.3s-1.6.5-2.4.5-1.7-.2-2.4-.5-1.4-.8-2-1.3c-.6-.6-1-1.2-1.3-2-.3-.8-.5-1.6-.5-2.4s.2-1.7.5-2.4ZM16.9,7c-.5.2-.9.5-1.3.8-.4.4-.6.8-.8,1.3-.2.5-.3,1-.3,1.5s.1,1.1.3,1.5.5.9.8,1.3c.4.4.8.6,1.3.8.5.2,1,.3,1.5.3s1-.1,1.5-.3.9-.5,1.3-.8c.4-.4.6-.8.9-1.3.2-.5.3-1,.3-1.5s-.1-1-.3-1.5c-.2-.5-.5-.9-.9-1.3-.4-.3-.8-.6-1.3-.8-.5-.2-1-.3-1.5-.3s-1,.1-1.5.3Z"/>
      <path class="cls-1" d="M29.2,16.2h-2.8V6.7h-2.1v-2h2.1V.2h2.8v4.5h2.1v2h-2.1v9.5h0Z"/>
      <path class="cls-1" d="M42,0l6.6,16.2h-2.7l-1.7-4.2h-7.3l-1.7,4.2h-2.7L39,0h2.9ZM37.9,9.7h5.2l-2.6-6.5-2.6,6.5h0Z"/>
      <path class="cls-1" d="M52.1,0v16.2h-2.9V0h2.9Z"/>
    </g>
  </g>
</svg>