<?xml version="1.0" encoding="utf-8"?>
<!-- Generator: Adobe Illustrator 27.8.1, SVG Export Plug-In . SVG Version: 6.00 Build 0)  -->
<svg version="1.1" id="katman_1" xmlns="http://www.w3.org/2000/svg" xmlns:xlink="http://www.w3.org/1999/xlink" x="0px" y="0px"
	 viewBox="0 0 22 22" style="enable-background:new 0 0 22 22;" xml:space="preserve">
<style type="text/css">
	.st0{fill:#34B233;stroke:#34B233;stroke-miterlimit:10;}
</style>
<g>
	<path class="st0" d="M11,21.5C5.2,21.5,0.5,16.8,0.5,11S5.2,0.5,11,0.5S21.5,5.2,21.5,11S16.8,21.5,11,21.5z M11,1.6
		c-5.2,0-9.4,4.2-9.4,9.4s4.2,9.4,9.4,9.4s9.4-4.2,9.4-9.4S16.2,1.6,11,1.6z"/>
	<path class="st0" d="M9.9,15.2L9.9,15.2c-0.1,0-0.3-0.1-0.4-0.2L6,11.5c-0.2-0.2-0.2-0.5,0-0.7c0.2-0.2,0.5-0.2,0.7,0L9.9,14
		L15.9,8c0.2-0.2,0.5-0.2,0.7,0c0.2,0.2,0.2,0.5,0,0.7l-6.3,6.3C10.2,15.2,10.1,15.2,9.9,15.2z"/>
</g>
</svg>
