<?xml version="1.0" encoding="utf-8"?>
<!-- Generator: Adobe Illustrator 27.8.1, SVG Export Plug-In . SVG Version: 6.00 Build 0)  -->
<svg version="1.1" id="katman_1" xmlns="http://www.w3.org/2000/svg" xmlns:xlink="http://www.w3.org/1999/xlink" x="0px" y="0px"
	 viewBox="0 0 22 22" style="enable-background:new 0 0 22 22;" xml:space="preserve">
<style type="text/css">
	.st0{opacity:0.2;fill-rule:evenodd;clip-rule:evenodd;fill:#FFA500;enable-background:new    ;}
	.st1{fill-rule:evenodd;clip-rule:evenodd;fill:#FFA500;}
</style>
<g>
	<path class="st0" d="M11.1,2.1c-4.9,0-8.9,4-8.9,8.9s4,8.9,8.9,8.9s8.9-4,8.9-8.9S16,2.1,11.1,2.1z M0.1,11.1c0-6.1,4.9-11,11-11
		s11,4.9,11,11s-4.9,11-11,11S0.1,17.1,0.1,11.1z"/>
	<path class="st1" d="M10,1.1c0-0.6,0.5-1,1-1c6.1,0,11,4.9,11,11c0,0.6-0.5,1-1,1c-0.6,0-1-0.5-1-1c0-4.9-4-8.9-8.9-8.9
		C10.5,2.1,10,1.7,10,1.1z"/>
</g>
</svg>
