<?xml version="1.0" encoding="utf-8"?>
<!-- Generator: Adobe Illustrator 27.8.1, SVG Export Plug-In . SVG Version: 6.00 Build 0)  -->
<svg version="1.1" id="katman_1" xmlns="http://www.w3.org/2000/svg" xmlns:xlink="http://www.w3.org/1999/xlink" x="0px" y="0px"
	 viewBox="0 0 1024 1024" style="enable-background:new 0 0 1024 1024;" xml:space="preserve">
<style type="text/css">
	.st0{fill:none;stroke:#FFFFFF;stroke-width:12;stroke-miterlimit:10;}
</style>
<g>
	<path class="st0" d="M27.5,100.9c-0.3-8.7-0.6-20.3-0.7-33.9c-0.2-25.1,0.6-29.7,4.2-33.6c2.7-2.9,7.2-5.7,35.9-6.4
		c14.1-0.4,25.7,0,33.9,0.4"/>
	<path class="st0" d="M923.1,27.5c8.7-0.3,20.3-0.6,33.9-0.7c25.1-0.2,29.7,0.6,33.6,4.2c2.9,2.7,5.7,7.2,6.4,35.9
		c0.4,14.1,0,25.7-0.4,33.9"/>
	<path class="st0" d="M996.5,923.1c0.3,8.7,0.6,20.3,0.7,33.9c0.2,25.1-0.6,29.7-4.2,33.6c-2.7,2.9-7.2,5.7-35.9,6.4
		c-14.1,0.4-25.7,0-33.9-0.4"/>
	<path class="st0" d="M100.9,996.5c-8.7,0.3-20.3,0.6-33.9,0.7c-25.1,0.2-29.7-0.6-33.6-4.2c-2.9-2.7-5.7-7.2-6.4-35.9
		c-0.4-14.1,0-25.7,0.4-33.9"/>
</g>
</svg>
