<?xml version="1.0" encoding="UTF-8"?>
<svg id="katman_1" xmlns="http://www.w3.org/2000/svg" viewBox="0 0 550 550">
  <defs>
    <style>
      .cls-1 {
        opacity: .9;
      }
    </style>
  </defs>
  <path class="cls-1" d="M475,546.61H75v-68.13c120.83,0,241.66,0,362.48,0,.03,0,11.22,0,21.54,0,6.96,0,13.52,0,15.98,0v68.13Z"/>
  <path d="M475,433.43h-92.49v-241.11c0-12.12-2.51-24.51-7.51-37.16-5.01-12.65-12.25-23.97-21.74-33.99-9.49-10.54-20.83-19.1-33.99-25.69-13.18-6.58-27.94-9.88-44.27-9.88s-32.02,3.16-45.45,9.49c-13.44,6.32-24.64,14.5-33.6,24.5-9.49,10.55-16.74,22.01-21.74,34.39-5.01,12.39-7.51,24.9-7.51,37.55v241.9h-91.7V18.41h92.49v55.34c.52-.52,3.95-4.47,10.28-11.86,6.32-7.38,15.81-15.54,28.46-24.5,12.12-8.42,27-16.21,44.66-23.32,17.65-7.11,38.07-10.67,61.27-10.67s46.37,4.75,66.4,14.23c20.02,9.48,37.15,21.87,51.38,37.15,14.23,15.29,25.3,32.68,33.2,52.18,7.91,19.5,11.86,39.26,11.86,59.29v267.2Z"/>
</svg>