<?xml version="1.0" encoding="utf-8"?>
<!-- Generator: Adobe Illustrator 27.8.1, SVG Export Plug-In . SVG Version: 6.00 Build 0)  -->
<svg version="1.1" id="katman_1" xmlns="http://www.w3.org/2000/svg" xmlns:xlink="http://www.w3.org/1999/xlink" x="0px" y="0px"
	 viewBox="0 0 100 100" style="enable-background:new 0 0 100 100;" xml:space="preserve">
<style type="text/css">
	.st0{fill:#FFFFFF;}
</style>
<g>
	<g id="Ebene_1" shape-rendering="auto">
		<g>
			<rect x="36" class="st0" width="4" height="4"/>
			<rect x="56" class="st0" width="4" height="4"/>
			<rect x="64" class="st0" width="4" height="4"/>
			<rect x="32" y="4" class="st0" width="4" height="4"/>
			<rect x="36" y="4" class="st0" width="4" height="4"/>
			<rect x="44" y="4" class="st0" width="4" height="4"/>
			<rect x="48" y="4" class="st0" width="4" height="4"/>
			<rect x="52" y="4" class="st0" width="4" height="4"/>
			<rect x="56" y="4" class="st0" width="4" height="4"/>
			<rect x="36" y="8" class="st0" width="4" height="4"/>
			<rect x="40" y="8" class="st0" width="4" height="4"/>
			<rect x="44" y="8" class="st0" width="4" height="4"/>
			<rect x="32" y="12" class="st0" width="4" height="4"/>
			<rect x="36" y="12" class="st0" width="4" height="4"/>
			<rect x="44" y="12" class="st0" width="4" height="4"/>
			<rect x="52" y="12" class="st0" width="4" height="4"/>
			<rect x="60" y="12" class="st0" width="4" height="4"/>
			<rect x="64" y="12" class="st0" width="4" height="4"/>
			<rect x="40" y="16" class="st0" width="4" height="4"/>
			<rect x="48" y="16" class="st0" width="4" height="4"/>
			<rect x="60" y="16" class="st0" width="4" height="4"/>
			<rect x="64" y="16" class="st0" width="4" height="4"/>
			<rect x="32" y="20" class="st0" width="4" height="4"/>
			<rect x="40" y="20" class="st0" width="4" height="4"/>
			<rect x="52" y="20" class="st0" width="4" height="4"/>
			<rect x="56" y="20" class="st0" width="4" height="4"/>
			<rect x="60" y="20" class="st0" width="4" height="4"/>
			<rect x="32" y="24" class="st0" width="4" height="4"/>
			<rect x="40" y="24" class="st0" width="4" height="4"/>
			<rect x="48" y="24" class="st0" width="4" height="4"/>
			<rect x="56" y="24" class="st0" width="4" height="4"/>
			<rect x="64" y="24" class="st0" width="4" height="4"/>
			<rect x="48" y="28" class="st0" width="4" height="4"/>
			<rect x="64" y="28" class="st0" width="4" height="4"/>
			<rect y="32" class="st0" width="4" height="4"/>
			<rect x="4" y="32" class="st0" width="4" height="4"/>
			<rect x="8" y="32" class="st0" width="4" height="4"/>
			<rect x="12" y="32" class="st0" width="4" height="4"/>
			<rect x="16" y="32" class="st0" width="4" height="4"/>
			<rect x="24" y="32" class="st0" width="4" height="4"/>
			<rect x="28" y="32" class="st0" width="4" height="4"/>
			<rect x="32" y="32" class="st0" width="4" height="4"/>
			<rect x="36" y="32" class="st0" width="4" height="4"/>
			<rect x="40" y="32" class="st0" width="4" height="4"/>
			<rect x="48" y="32" class="st0" width="4" height="4"/>
			<rect x="52" y="32" class="st0" width="4" height="4"/>
			<rect x="56" y="32" class="st0" width="4" height="4"/>
			<rect x="60" y="32" class="st0" width="4" height="4"/>
			<rect x="68" y="32" class="st0" width="4" height="4"/>
			<rect x="76" y="32" class="st0" width="4" height="4"/>
			<rect x="84" y="32" class="st0" width="4" height="4"/>
			<rect x="92" y="32" class="st0" width="4" height="4"/>
			<rect x="12" y="36" class="st0" width="4" height="4"/>
			<rect x="36" y="36" class="st0" width="4" height="4"/>
			<rect x="60" y="36" class="st0" width="4" height="4"/>
			<rect x="64" y="36" class="st0" width="4" height="4"/>
			<rect x="68" y="36" class="st0" width="4" height="4"/>
			<rect x="76" y="36" class="st0" width="4" height="4"/>
			<rect x="80" y="36" class="st0" width="4" height="4"/>
			<rect x="96" y="36" class="st0" width="4" height="4"/>
			<rect x="24" y="40" class="st0" width="4" height="4"/>
			<rect x="36" y="40" class="st0" width="4" height="4"/>
			<rect x="44" y="40" class="st0" width="4" height="4"/>
			<rect x="48" y="40" class="st0" width="4" height="4"/>
			<rect x="52" y="40" class="st0" width="4" height="4"/>
			<rect x="56" y="40" class="st0" width="4" height="4"/>
			<rect x="60" y="40" class="st0" width="4" height="4"/>
			<rect x="68" y="40" class="st0" width="4" height="4"/>
			<rect x="72" y="40" class="st0" width="4" height="4"/>
			<rect x="80" y="40" class="st0" width="4" height="4"/>
			<rect x="88" y="40" class="st0" width="4" height="4"/>
			<rect y="44" class="st0" width="4" height="4"/>
			<rect x="8" y="44" class="st0" width="4" height="4"/>
			<rect x="36" y="44" class="st0" width="4" height="4"/>
			<rect x="40" y="44" class="st0" width="4" height="4"/>
			<rect x="44" y="44" class="st0" width="4" height="4"/>
			<rect x="64" y="44" class="st0" width="4" height="4"/>
			<rect x="68" y="44" class="st0" width="4" height="4"/>
			<rect y="48" class="st0" width="4" height="4"/>
			<rect x="8" y="48" class="st0" width="4" height="4"/>
			<rect x="12" y="48" class="st0" width="4" height="4"/>
			<rect x="20" y="48" class="st0" width="4" height="4"/>
			<rect x="24" y="48" class="st0" width="4" height="4"/>
			<rect x="36" y="48" class="st0" width="4" height="4"/>
			<rect x="44" y="48" class="st0" width="4" height="4"/>
			<rect x="52" y="48" class="st0" width="4" height="4"/>
			<rect x="60" y="48" class="st0" width="4" height="4"/>
			<rect x="72" y="48" class="st0" width="4" height="4"/>
			<rect x="76" y="48" class="st0" width="4" height="4"/>
			<rect x="80" y="48" class="st0" width="4" height="4"/>
			<rect x="84" y="48" class="st0" width="4" height="4"/>
			<rect x="92" y="48" class="st0" width="4" height="4"/>
			<rect x="96" y="48" class="st0" width="4" height="4"/>
			<rect y="52" class="st0" width="4" height="4"/>
			<rect x="4" y="52" class="st0" width="4" height="4"/>
			<rect x="8" y="52" class="st0" width="4" height="4"/>
			<rect x="28" y="52" class="st0" width="4" height="4"/>
			<rect x="32" y="52" class="st0" width="4" height="4"/>
			<rect x="40" y="52" class="st0" width="4" height="4"/>
			<rect x="48" y="52" class="st0" width="4" height="4"/>
			<rect x="56" y="52" class="st0" width="4" height="4"/>
			<rect x="64" y="52" class="st0" width="4" height="4"/>
			<rect x="68" y="52" class="st0" width="4" height="4"/>
			<rect x="72" y="52" class="st0" width="4" height="4"/>
			<rect x="76" y="52" class="st0" width="4" height="4"/>
			<rect x="80" y="52" class="st0" width="4" height="4"/>
			<rect y="56" class="st0" width="4" height="4"/>
			<rect x="8" y="56" class="st0" width="4" height="4"/>
			<rect x="12" y="56" class="st0" width="4" height="4"/>
			<rect x="16" y="56" class="st0" width="4" height="4"/>
			<rect x="20" y="56" class="st0" width="4" height="4"/>
			<rect x="24" y="56" class="st0" width="4" height="4"/>
			<rect x="28" y="56" class="st0" width="4" height="4"/>
			<rect x="40" y="56" class="st0" width="4" height="4"/>
			<rect x="56" y="56" class="st0" width="4" height="4"/>
			<rect x="68" y="56" class="st0" width="4" height="4"/>
			<rect x="72" y="56" class="st0" width="4" height="4"/>
			<rect x="80" y="56" class="st0" width="4" height="4"/>
			<rect x="88" y="56" class="st0" width="4" height="4"/>
			<rect x="92" y="56" class="st0" width="4" height="4"/>
			<rect x="96" y="56" class="st0" width="4" height="4"/>
			<rect y="60" class="st0" width="4" height="4"/>
			<rect x="12" y="60" class="st0" width="4" height="4"/>
			<rect x="28" y="60" class="st0" width="4" height="4"/>
			<rect x="36" y="60" class="st0" width="4" height="4"/>
			<rect x="48" y="60" class="st0" width="4" height="4"/>
			<rect x="56" y="60" class="st0" width="4" height="4"/>
			<rect x="68" y="60" class="st0" width="4" height="4"/>
			<rect x="92" y="60" class="st0" width="4" height="4"/>
			<rect x="96" y="60" class="st0" width="4" height="4"/>
			<rect y="64" class="st0" width="4" height="4"/>
			<rect x="8" y="64" class="st0" width="4" height="4"/>
			<rect x="12" y="64" class="st0" width="4" height="4"/>
			<rect x="16" y="64" class="st0" width="4" height="4"/>
			<rect x="20" y="64" class="st0" width="4" height="4"/>
			<rect x="24" y="64" class="st0" width="4" height="4"/>
			<rect x="28" y="64" class="st0" width="4" height="4"/>
			<rect x="36" y="64" class="st0" width="4" height="4"/>
			<rect x="48" y="64" class="st0" width="4" height="4"/>
			<rect x="52" y="64" class="st0" width="4" height="4"/>
			<rect x="56" y="64" class="st0" width="4" height="4"/>
			<rect x="60" y="64" class="st0" width="4" height="4"/>
			<rect x="64" y="64" class="st0" width="4" height="4"/>
			<rect x="68" y="64" class="st0" width="4" height="4"/>
			<rect x="72" y="64" class="st0" width="4" height="4"/>
			<rect x="76" y="64" class="st0" width="4" height="4"/>
			<rect x="80" y="64" class="st0" width="4" height="4"/>
			<rect x="84" y="64" class="st0" width="4" height="4"/>
			<rect x="96" y="64" class="st0" width="4" height="4"/>
			<rect x="32" y="68" class="st0" width="4" height="4"/>
			<rect x="36" y="68" class="st0" width="4" height="4"/>
			<rect x="40" y="68" class="st0" width="4" height="4"/>
			<rect x="64" y="68" class="st0" width="4" height="4"/>
			<rect x="80" y="68" class="st0" width="4" height="4"/>
			<rect x="96" y="68" class="st0" width="4" height="4"/>
			<rect x="32" y="72" class="st0" width="4" height="4"/>
			<rect x="36" y="72" class="st0" width="4" height="4"/>
			<rect x="44" y="72" class="st0" width="4" height="4"/>
			<rect x="48" y="72" class="st0" width="4" height="4"/>
			<rect x="52" y="72" class="st0" width="4" height="4"/>
			<rect x="56" y="72" class="st0" width="4" height="4"/>
			<rect x="64" y="72" class="st0" width="4" height="4"/>
			<rect x="72" y="72" class="st0" width="4" height="4"/>
			<rect x="80" y="72" class="st0" width="4" height="4"/>
			<rect x="88" y="72" class="st0" width="4" height="4"/>
			<rect x="92" y="72" class="st0" width="4" height="4"/>
			<rect x="96" y="72" class="st0" width="4" height="4"/>
			<rect x="36" y="76" class="st0" width="4" height="4"/>
			<rect x="44" y="76" class="st0" width="4" height="4"/>
			<rect x="52" y="76" class="st0" width="4" height="4"/>
			<rect x="64" y="76" class="st0" width="4" height="4"/>
			<rect x="80" y="76" class="st0" width="4" height="4"/>
			<rect x="84" y="76" class="st0" width="4" height="4"/>
			<rect x="32" y="80" class="st0" width="4" height="4"/>
			<rect x="40" y="80" class="st0" width="4" height="4"/>
			<rect x="44" y="80" class="st0" width="4" height="4"/>
			<rect x="48" y="80" class="st0" width="4" height="4"/>
			<rect x="52" y="80" class="st0" width="4" height="4"/>
			<rect x="56" y="80" class="st0" width="4" height="4"/>
			<rect x="64" y="80" class="st0" width="4" height="4"/>
			<rect x="68" y="80" class="st0" width="4" height="4"/>
			<rect x="72" y="80" class="st0" width="4" height="4"/>
			<rect x="76" y="80" class="st0" width="4" height="4"/>
			<rect x="80" y="80" class="st0" width="4" height="4"/>
			<rect x="84" y="80" class="st0" width="4" height="4"/>
			<rect x="32" y="84" class="st0" width="4" height="4"/>
			<rect x="36" y="84" class="st0" width="4" height="4"/>
			<rect x="48" y="84" class="st0" width="4" height="4"/>
			<rect x="60" y="84" class="st0" width="4" height="4"/>
			<rect x="64" y="84" class="st0" width="4" height="4"/>
			<rect x="72" y="84" class="st0" width="4" height="4"/>
			<rect x="80" y="84" class="st0" width="4" height="4"/>
			<rect x="92" y="84" class="st0" width="4" height="4"/>
			<rect x="96" y="84" class="st0" width="4" height="4"/>
			<rect x="32" y="88" class="st0" width="4" height="4"/>
			<rect x="36" y="88" class="st0" width="4" height="4"/>
			<rect x="40" y="88" class="st0" width="4" height="4"/>
			<rect x="48" y="88" class="st0" width="4" height="4"/>
			<rect x="52" y="88" class="st0" width="4" height="4"/>
			<rect x="56" y="88" class="st0" width="4" height="4"/>
			<rect x="80" y="88" class="st0" width="4" height="4"/>
			<rect x="88" y="88" class="st0" width="4" height="4"/>
			<rect x="96" y="88" class="st0" width="4" height="4"/>
			<rect x="32" y="92" class="st0" width="4" height="4"/>
			<rect x="36" y="92" class="st0" width="4" height="4"/>
			<rect x="48" y="92" class="st0" width="4" height="4"/>
			<rect x="56" y="92" class="st0" width="4" height="4"/>
			<rect x="64" y="92" class="st0" width="4" height="4"/>
			<rect x="68" y="92" class="st0" width="4" height="4"/>
			<rect x="72" y="92" class="st0" width="4" height="4"/>
			<rect x="76" y="92" class="st0" width="4" height="4"/>
			<rect x="80" y="92" class="st0" width="4" height="4"/>
			<rect x="84" y="92" class="st0" width="4" height="4"/>
			<rect x="92" y="92" class="st0" width="4" height="4"/>
			<rect x="32" y="96" class="st0" width="4" height="4"/>
			<rect x="40" y="96" class="st0" width="4" height="4"/>
			<rect x="48" y="96" class="st0" width="4" height="4"/>
			<rect x="60" y="96" class="st0" width="4" height="4"/>
			<rect x="88" y="96" class="st0" width="4" height="4"/>
			<rect x="92" y="96" class="st0" width="4" height="4"/>
			<rect x="96" y="96" class="st0" width="4" height="4"/>
			<path class="st0" d="M0.9,0C0.4,0,0,0.4,0,0.9v26.2C0,27.6,0.4,28,0.9,28h26.2c0.5,0,0.9-0.4,0.9-0.9V0.9C28,0.4,27.6,0,27.1,0
				H0.9z M24,8v15.5c0,0.2-0.2,0.5-0.5,0.5h-19C4.3,24,4,23.7,4,23.5v-19C4,4.2,4.3,4,4.5,4h19C23.8,4,24,4.2,24,4.5V8z"/>
			<path class="st0" d="M20,16V8.9C20,8.4,19.6,8,19.1,8H8.9C8.4,8,8,8.4,8,8.9v10.3C8,19.6,8.4,20,8.9,20h10.3
				c0.5,0,0.9-0.4,0.9-0.9V16H20z"/>
			<path class="st0" d="M72.9,0C72.4,0,72,0.4,72,0.9v26.2c0,0.5,0.4,0.9,0.9,0.9h26.2c0.5,0,0.9-0.4,0.9-0.9V0.9
				c0-0.5-0.4-0.9-0.9-0.9H72.9z M96,8v15.5c0,0.2-0.2,0.5-0.5,0.5h-19c-0.2,0-0.5-0.2-0.5-0.5v-19C76,4.2,76.2,4,76.5,4h19
				C95.8,4,96,4.2,96,4.5V8z"/>
			<path class="st0" d="M92,16V8.9C92,8.4,91.6,8,91.1,8H80.9C80.4,8,80,8.4,80,8.9v10.3c0,0.5,0.4,0.9,0.9,0.9h10.2
				c0.5,0,0.9-0.4,0.9-0.9V16z"/>
			<path class="st0" d="M0.9,72C0.4,72,0,72.4,0,72.9v26.2c0,0.5,0.4,0.9,0.9,0.9h26.2c0.5,0,0.9-0.4,0.9-0.9V72.9
				c0-0.5-0.4-0.9-0.9-0.9H0.9z M24,80v15.5c0,0.2-0.2,0.5-0.5,0.5h-19C4.3,96,4,95.8,4,95.5v-19C4,76.3,4.3,76,4.5,76h19
				c0.2,0,0.5,0.2,0.5,0.5V80z"/>
			<path class="st0" d="M20,88v-7.1c0-0.5-0.4-0.9-0.9-0.9H8.9C8.4,80,8,80.4,8,80.9v10.2C8,91.6,8.4,92,8.9,92h10.3
				c0.5,0,0.9-0.4,0.9-0.9V88H20z"/>
		</g>
	</g>
</g>
</svg>
