<?xml version="1.0" encoding="UTF-8"?>
<svg id="katman_3" xmlns="http://www.w3.org/2000/svg" viewBox="0 0 52.13 20">
  <defs>
    <style>
      .cls-1 {
        opacity: .9;
      }

      .cls-1, .cls-2 {
        fill: #fff;
      }
    </style>
  </defs>
  <rect class="cls-1" x="0" y="18.1" width="29.2" height="1.9"/>
  <path class="cls-2" d="M11.13,16.48h-2.57v-6.71c0-.34-.07-.68-.21-1.03-.14-.35-.34-.67-.6-.95-.26-.29-.58-.53-.95-.71-.37-.18-.78-.27-1.23-.27s-.89.09-1.26.26c-.37.18-.69.4-.93.68-.26.29-.47.61-.6.96-.14.34-.21.69-.21,1.04v6.73H0V4.93h2.57v1.54s.11-.12.29-.33c.18-.21.44-.43.79-.68.34-.23.75-.45,1.24-.65.49-.2,1.06-.3,1.7-.3s1.29.13,1.85.4c.56.26,1.03.61,1.43,1.03.4.43.7.91.92,1.45.22.54.33,1.09.33,1.65v7.44Z"/>
  <path class="cls-2" d="M12.65,8.2c.32-.76.77-1.42,1.34-1.98.56-.57,1.22-1.02,1.98-1.35.76-.33,1.58-.49,2.44-.49s1.66.17,2.42.49c.76.33,1.42.78,1.98,1.35.57.56,1.02,1.22,1.35,1.98.33.76.49,1.57.49,2.42s-.16,1.68-.49,2.44c-.33.76-.78,1.42-1.35,1.98-.56.57-1.22,1.02-1.98,1.34-.76.32-1.57.48-2.42.48s-1.68-.16-2.44-.48c-.76-.32-1.42-.77-1.98-1.34-.57-.56-1.02-1.22-1.34-1.98-.32-.76-.48-1.58-.48-2.44s.16-1.66.48-2.42ZM16.88,7.01c-.48.21-.9.49-1.26.85-.35.37-.63.79-.84,1.26-.21.48-.31.98-.31,1.51s.1,1.05.31,1.53c.21.48.48.9.84,1.26.37.35.79.63,1.26.84.48.21.99.31,1.53.31s1.03-.1,1.51-.31c.48-.21.9-.48,1.26-.84.35-.37.63-.79.85-1.26.21-.48.32-.99.32-1.53s-.11-1.03-.32-1.51c-.21-.48-.49-.9-.85-1.26-.37-.35-.79-.63-1.26-.85-.48-.21-.98-.32-1.51-.32s-1.05.11-1.53.32Z"/>
  <path class="cls-2" d="M29.23,16.23h-2.77V6.73h-2.11v-2.05h2.11V.18h2.77v4.51h2.11v2.05h-2.11v9.5Z"/>
  <path class="cls-2" d="M41.95.02l6.62,16.21h-2.71l-1.72-4.25h-7.28l-1.74,4.25h-2.73L39.04.02h2.9ZM37.9,9.68h5.19l-2.6-6.53-2.6,6.53Z"/>
  <path class="cls-2" d="M52.13,0v16.23h-2.9V0h2.9Z"/>
</svg>