<?xml version="1.0" encoding="utf-8"?>
<!-- Generator: Adobe Illustrator 27.8.1, SVG Export Plug-In . SVG Version: 6.00 Build 0)  -->
<svg version="1.1" id="katman_1" xmlns="http://www.w3.org/2000/svg" xmlns:xlink="http://www.w3.org/1999/xlink" x="0px" y="0px"
	 viewBox="0 0 15 15" style="enable-background:new 0 0 15 15;" xml:space="preserve">
<style type="text/css">
	.st0{fill:#4285F4;}
	.st1{fill:#34A853;}
	.st2{fill:#FBBC05;}
	.st3{fill:#EB4335;}
</style>
<g>
	<path class="st0" d="M14.9,7.7c0-0.6-0.1-1.1-0.2-1.5h-7v2.8h4.1c-0.1,0.7-0.5,1.7-1.5,2.4l0,0.1l2.2,1.7l0.2,0
		C14,11.9,14.9,9.9,14.9,7.7"/>
	<path class="st1" d="M7.7,15c2,0,3.7-0.7,5-1.8l-2.4-1.8c-0.6,0.4-1.5,0.8-2.6,0.8c-2,0-3.7-1.3-4.3-3.1L3.3,9L1,10.8l0,0.1
		C2.2,13.3,4.7,15,7.7,15"/>
	<path class="st2" d="M3.4,9C3.2,8.5,3.1,8,3.1,7.5c0-0.5,0.1-1,0.2-1.5l0-0.1L1,4.1l-0.1,0c-0.5,1-0.8,2.2-0.8,3.4s0.3,2.3,0.8,3.4
		L3.4,9"/>
	<path class="st3" d="M7.7,2.9c1.4,0,2.4,0.6,2.9,1.1L12.7,2c-1.3-1.2-3-2-5-2C4.7,0,2.2,1.7,0.9,4.1L3.4,6C4,4.2,5.7,2.9,7.7,2.9"
		/>
</g>
</svg>
